<?xml version="1.0" encoding="utf-8"?>
<!-- Generator: Adobe Illustrator 27.9.0, SVG Export Plug-In . SVG Version: 6.00 Build 0)  -->
<svg version="1.1" id="LOGO" xmlns="http://www.w3.org/2000/svg" xmlns:xlink="http://www.w3.org/1999/xlink" x="0px" y="0px"
	 viewBox="0 0 235 80" style="enable-background:new 0 0 235 80;" xml:space="preserve">
<style type="text/css">
	.st0{fill:#4B1C1B;}
	.st1{fill:#F9EC38;}
</style>
<g id="Reeses_Logo">
	<path class="st0" d="M231.6,37.5c-5.4-6.6-11.4-7.6-15.6-7.6c-0.8,0-1.5,0-2.3,0.1c0.8-2.4,1-4.5,1-7.4h-18c-0.5,3.4-1.5,7-3.1,9.9
		c-2.4-1.5-5.3-2.3-8.7-2.3c-5,0-10.8,1.9-16.2,5.8c-5-5.2-10.4-6.1-14.3-6.1c-6.1,0-13.2,2.9-17.2,8.3c-2.4-4.9-7.2-8-13.8-8
		c-6.3,0-14.1,3.1-20.4,9.4c-0.4,0.4-0.8,0.8-1.2,1.3c-1.8-6.5-7.1-10.6-14.8-10.6c-2.9,0-6,0.6-9.2,1.9C80.7,28.6,83,24,83,18.4
		c0-8.4-6.2-16.5-18.9-16.5c-12,0-22.7,6.5-33.9,17.6C15.3,34.5,2.9,56.4,2.9,68.1c0,7.4,4.6,10,8.8,10c4.2,0,8.4-3,10.8-5.5
		c2.8-2.8,5.2-7,7.7-11.5c1.2-2.1,2.7-4.9,4.5-7.5c-1.5,3.7-3,7.5-3,11.2c0,7.6,4.8,12.9,13.6,12.9c5.2,0,10.7-2,16-5.2
		c3.4,3.2,8.2,4.7,12.9,4.7c8.2,0,15.7-3.9,21.1-7.6c0.6,0.9,1.2,1.8,2,2.5c3.4,3.4,8.4,5.1,13.3,5.1c5.9,0,11.5-2.1,16.2-4.6
		c4.2,3,9.3,4.7,14.3,4.7c6.6,0,12.5-2.6,16.2-6.8c0.4,0.6,0.9,1.1,1.4,1.7c3.4,3.4,8.4,5.1,13.3,5.1c5.9,0,11.5-2.1,16.2-4.6
		c4.2,3,9.3,4.7,14.3,4.7c11.1,0,20.2-7.4,20.2-17.3c0-2.2-0.5-4.7-1.6-7.3c-0.7-1.9-1.8-3.8-2.8-5.5c-0.4-0.6-0.7-1.2-0.8-1.5
		c1.7,0,3.3,0.5,6,2.7l0.7,0.5l7.8-10.9L231.6,37.5L231.6,37.5z"/>
	<path class="st1" d="M156.2,40.2c2.3,0,4.1,0.9,5.4,2l2.2-3.1c-1.8-1.9-5.2-3.6-9.4-3.6c-6.2,0-14.7,4.1-14.7,12.5
		c0,2.8,1.4,5.7,2.8,7.8c1.5,2.3,2.6,4.1,2.6,6.3c0,2.9-2,4.4-5.6,4.4c-3.3,0-6.7-1.7-8.8-3.9c-0.7-0.7-1.4-1.5-2.1-2.3
		c-4.3,3-9.9,5.9-14.4,5.9c-1.8,0-5.4-0.5-5.4-4.8c0-2.9,0.8-5.8,1.6-7.8h21.2c0.9-1.6,1.8-4.7,1.8-7.5c0-5.6-2.8-10.3-9.9-10.3
		c-4.8,0-11.2,2.5-16.4,7.7c-3.7,3.7-6.3,8.1-7.6,11.8c-2.1,1.8-13.8,10.9-21.7,10.9c-1.7,0-5.4-0.5-5.4-4.8c0-2.9,0.8-5.8,1.6-7.8
		h21.2c0.9-1.6,1.8-4.7,1.8-7.5c0-5.6-2.8-10.3-9.9-10.3c-4.8,0-11.2,2.5-16.4,7.7c-5.8,5.8-8.7,13-8.7,17c0,0.2,0,0.5,0,0.7
		c-1.8,0.9-6,2.9-8.7,2.9c-2.9,0-5.1-1.6-5.1-5c0-3.5,2.3-6.4,2.3-10.9c0-2.5-0.8-4.8-3.7-6.7c8.9-0.7,18.4-4.5,24.4-10.5
		c2.6-2.6,6.2-7,6.2-12.8c0-5.7-4.2-10.8-13.3-10.8c-9.3,0-18.6,4.7-29.9,16C19.5,38.2,8.5,58.8,8.5,68.1c0,3.4,1.4,4.3,3.2,4.3
		s4.5-1.5,6.8-3.8c4.7-4.7,9.4-16.9,15.1-22.6c2-2,3.9-2.9,5.5-2.9c2.2,0,3.5,1.4,3.5,3.7c0,4.8-5.3,12.9-5.3,18
		c0,4.1,1.9,7.3,8,7.3c6.3,0,12.9-4,17.4-7.4c0.5,1.3,1.1,2.4,2.2,3.4c1.9,2,5.2,3.4,9.3,3.4c10.4,0,20.3-8.2,24.4-11.4
		c0,0.2,0,0.3,0,0.4c0,2.8,0.7,5.5,2.8,7.6c1.9,2,5.2,3.4,9.3,3.4c6.2,0,12.1-2.9,16.8-5.9c3,3.3,8.3,6,13.8,6
		c8.4,0,14.5-5.2,14.5-11.7c0-3.3-2-7.4-3.5-9.6c-1.3-2-1.8-3.3-1.8-5C150.4,43,151.9,40.2,156.2,40.2 M122.1,39.6
		c1.9,0,3.3,1.3,3.3,4.5c0,1.8-0.7,4.5-1.2,5.8h-12.1C113,48,117.5,39.6,122.1,39.6 M85.6,39.6c2,0,3.3,1.3,3.3,4.5
		c0,1.8-0.7,4.5-1.2,5.8H75.6C76.5,48,81,39.6,85.6,39.6 M37.6,38.6c3-5.6,8.9-13.9,14.7-19.7c3.5-3.5,7.2-6.1,10.6-6.1
		c2.3,0,4.1,1.3,4.1,3.9c0,3.3-2.5,7.1-5.3,9.9C53.6,34.7,41.5,37.8,37.6,38.6 M216,35.4c-6.2,0-14.7,4.1-14.7,12.5
		c0,2.8,1.4,5.7,2.8,7.8c1.5,2.3,2.6,4.1,2.6,6.3c0,2.9-2,4.3-5.6,4.3c-3.4,0-6.7-1.7-8.8-3.8c-0.7-0.7-1.4-1.5-2.1-2.3
		c-4.3,3-10,5.9-14.4,5.9c-1.7,0-5.4-0.5-5.4-4.8c0-2.9,0.8-5.8,1.6-7.8h21.2c0.9-1.6,1.8-4.7,1.8-7.5c0-5.6-2.8-10.3-9.9-10.3
		c-4.8,0-11.2,2.5-16.4,7.7c-5.8,5.8-8.7,13-8.7,17c0,2.8,0.7,5.5,2.8,7.6c2,2,5.3,3.4,9.3,3.4c6.2,0,12.1-2.9,16.8-5.9
		c3,3.3,8.3,6,13.8,6c8.4,0,14.5-5.2,14.5-11.7c0-3.3-2-7.4-3.4-9.6c-1.3-2-1.8-3.3-1.8-5c0-2.3,1.5-5.2,5.8-5.2
		c2.3,0,4.1,0.9,5.5,2l2.2-3.1C223.6,37.1,220.1,35.4,216,35.4 M183.5,39.5c2,0,3.3,1.3,3.3,4.5c0,1.8-0.7,4.5-1.2,5.8h-12.1
		C174.4,48,178.9,39.5,183.5,39.5 M208.5,27.3h-6.4c-0.5,3-2.7,7.3-4.9,9.7l0.8,1.6C202.2,36.6,207.9,31.8,208.5,27.3"/>
</g>
</svg>
